<svg width="214" height="202" viewBox="0 0 214 202" fill="none" xmlns="http://www.w3.org/2000/svg">
<path d="M173.72 179.955C155.945 193.34 134.115 201.032 111.396 201.915C88.6775 202.797 66.2516 196.825 47.3714 184.864C28.4911 172.903 14.1385 155.576 6.39523 135.395C-1.34802 115.214 -2.07917 93.2291 4.30784 72.6295L55.6696 86.8197C52.4772 97.1159 52.8426 108.104 56.7129 118.191C60.5832 128.278 67.757 136.939 77.1938 142.917C86.6306 148.896 97.8397 151.881 109.195 151.44C120.55 150.998 131.462 147.154 140.346 140.463L173.72 179.955Z" fill="#CBFB45"/>
<path d="M4.49445 72.0344C9.33935 56.7572 17.9476 42.7801 29.6148 31.247C41.282 19.7139 55.6764 10.9526 71.62 5.68005C87.5636 0.407547 104.603 -1.22626 121.344 0.912342C138.085 3.05094 154.052 8.90117 167.938 17.9842C181.823 27.0673 193.233 39.125 201.233 53.1705C209.233 67.2161 213.596 82.8502 213.965 98.7934C214.334 114.737 210.699 130.536 203.356 144.898C196.014 159.26 185.173 171.777 171.721 181.424L139.347 141.198C146.071 136.376 151.489 130.12 155.159 122.941C158.829 115.763 160.646 107.866 160.462 99.8971C160.277 91.9283 158.096 84.1139 154.098 77.0936C150.099 70.0733 144.396 64.0465 137.456 59.5066C130.516 54.9667 122.535 52.0426 114.167 50.9736C105.8 49.9047 97.2829 50.7213 89.3139 53.3567C81.3449 55.992 74.1502 60.3711 68.3186 66.1357C62.4871 71.9002 58.1844 78.8863 55.7628 86.5223L4.49445 72.0344Z" fill="#093679"/>
</svg>
