<svg width="300" height="300" viewBox="0 0 300 300" fill="none" xmlns="http://www.w3.org/2000/svg">
<path d="M276.92 229.946C259.93 256.918 234.79 277.776 205.145 289.495C175.501 301.215 142.894 303.185 112.053 295.121C81.2134 287.057 53.7442 269.377 33.6304 244.647C13.5166 219.917 1.80413 189.422 0.191959 157.586L75.1221 153.792C75.9279 169.704 81.7821 184.946 91.8355 197.307C101.889 209.668 115.619 218.504 131.033 222.535C146.448 226.566 162.746 225.581 177.563 219.723C192.38 213.866 204.946 203.44 213.438 189.959L276.92 229.946Z" fill="#CBFB45"/>
<path d="M0.537127 162.683C-1.48884 138.807 2.23449 114.793 11.3954 92.6522C20.5563 70.5111 34.8882 50.8868 53.1912 35.4222C71.4943 19.9577 93.2357 9.10298 116.595 3.76684C139.955 -1.56931 164.253 -1.23158 187.456 4.75173C210.658 10.7351 232.09 22.1898 249.956 38.1571C267.822 54.1244 281.603 74.1394 290.145 96.5266C298.687 118.914 301.741 143.022 299.053 166.832C296.364 190.642 288.01 213.461 274.691 233.38L212.324 191.675C218.981 181.72 223.156 170.314 224.5 158.413C225.844 146.512 224.318 134.462 220.048 123.273C215.778 112.083 208.89 102.079 199.96 94.0981C191.031 86.1172 180.319 80.3918 168.721 77.4012C157.124 74.4106 144.979 74.2418 133.304 76.9089C121.628 79.5761 110.761 85.0015 101.613 92.7311C92.4642 100.461 85.3008 110.269 80.7219 121.336C76.143 132.403 74.282 144.405 75.2947 156.339L0.537127 162.683Z" fill="#DEEBBC"/>
</svg>
