<svg width="16" height="16" viewBox="0 0 16 16" fill="none" xmlns="http://www.w3.org/2000/svg">
<path d="M7.75 0.25C12.0312 0.25 15.5 3.71875 15.5 8C15.5 12.2812 12.0312 15.75 7.75 15.75C3.46875 15.75 0 12.2812 0 8C0 3.71875 3.46875 0.25 7.75 0.25ZM11.5312 5.5625C11.6562 5.0625 11.3438 4.84375 11 4.96875L3.53125 7.84375C3.03125 8.03125 3.03125 8.34375 3.4375 8.46875L5.34375 9.0625L9.78125 6.25C10 6.125 10.1875 6.21875 10.0312 6.34375L6.4375 9.59375L6.3125 11.5625C6.5 11.5625 6.59375 11.4688 6.6875 11.375L7.625 10.4688L9.5625 11.9062C9.9375 12.0938 10.1875 12 10.2812 11.5625L11.5312 5.5625Z" fill="#CBFB45"/>
</svg>
