<svg width="10" height="11" viewBox="0 0 10 11" fill="none" xmlns="http://www.w3.org/2000/svg">
<path d="M9.81886 3.29726L8.70808 3.80624L7.92827 4.16363L7.89351 4.17928L6.82132 4.66357C6.82132 4.6594 6.81958 4.65523 6.81819 4.65105C6.75491 4.38723 6.63286 4.1411 6.46114 3.93105L6.36206 3.71445L7.43181 3.22425L8.22309 2.86164L9.3436 2.34814C9.40572 2.44503 9.46366 2.54411 9.51743 2.6454L9.81017 3.28405L9.81886 3.29726Z" fill="white"/>
<path d="M9.99997 6.23184C9.91762 6.58216 9.79816 6.92271 9.64361 7.24771L6.16943 6.6546L6.20211 6.46303C6.45554 6.25717 6.64789 5.98596 6.75837 5.67871L9.99997 6.23184Z" fill="white"/>
<path d="M3.73794 6.78434L2.33443 7.7783L1.33108 8.48892C1.09152 8.22723 0.880032 7.94117 0.700073 7.63542L1.69821 6.92827L2.39944 6.43146L3.12466 5.91797L3.73794 6.78434Z" fill="white"/>
<path d="M3.87177 2.4188L3.43789 3.38738L2.80237 3.10265L1.99753 2.74213L0.864502 2.23419C1.07101 1.92792 1.31048 1.6452 1.5786 1.39111L2.81488 1.94494L3.76017 2.36908L3.87177 2.4188Z" fill="white"/>
<path d="M8.79745 6.02637C8.62777 6.68532 8.28653 7.28755 7.80848 7.77177C7.33042 8.25599 6.73261 8.60491 6.07589 8.78303C5.41917 8.96115 4.72699 8.9621 4.06978 8.78578C3.41257 8.60947 2.81381 8.26218 2.33443 7.77928C2.08431 7.52663 1.87022 7.24071 1.69821 6.92959L0.700073 7.63673C1.21234 8.50972 1.97439 9.20922 2.88795 9.64502C3.80151 10.0808 4.82469 10.2329 5.82552 10.0817C6.82635 9.93056 7.75893 9.48299 8.503 8.79678C9.24706 8.11057 9.76848 7.21718 10 6.23184L8.79745 6.02637Z" fill="white"/>
<path d="M2.81487 1.94493C3.30188 1.59394 3.86415 1.36158 4.45687 1.26638C5.04958 1.17118 5.65634 1.21578 6.22876 1.39661C6.80119 1.57745 7.32345 1.88952 7.7539 2.30795C8.18436 2.72638 8.5111 3.23959 8.70808 3.80666L9.81886 3.29768C9.81677 3.29247 9.81503 3.28725 9.81295 3.28239L9.52022 2.64373C9.46529 2.54268 9.40734 2.4436 9.34639 2.34648C8.89441 1.63691 8.27299 1.05095 7.53812 0.641404C6.80325 0.231854 5.97802 0.0115845 5.13681 0.000444639C4.29559 -0.0106952 3.46482 0.187645 2.71936 0.577592C1.9739 0.967538 1.33718 1.53684 0.866577 2.23419L1.99961 2.74212C2.23029 2.4374 2.50506 2.16873 2.81487 1.94493Z" fill="white"/>
<path d="M1.2883 4.33069C1.33079 4.11227 1.39197 3.8979 1.47117 3.68995L0.358656 3.19141C-0.0792256 4.29453 -0.117353 5.51609 0.250881 6.64438L1.30638 5.89691C1.19288 5.38161 1.18673 4.84847 1.2883 4.33069V4.33069Z" fill="white"/>
<path d="M8.65252 3.65771L7.88662 4.04258L7.85325 4.05961L6.80261 4.58701" fill="white"/>
<path d="M3.07395 5.94506L2.39566 6.42553C2.22396 6.08937 2.11778 5.72362 2.08276 5.34778L2.46102 5.08008L3.07395 5.94506Z" fill="white"/>
<path d="M3.58391 3.47312L3.15003 4.4417L2.25098 4.03772C2.37325 3.70042 2.55559 3.38805 2.78916 3.11572L3.58391 3.47312Z" fill="white"/>
<path d="M7.95334 5.88258C7.78954 6.46223 7.45492 6.97911 6.9931 7.36582C6.53127 7.75254 5.96366 7.99117 5.36425 8.05061C4.76483 8.11005 4.16141 7.98754 3.63263 7.69905C3.10385 7.41056 2.67424 6.96947 2.39979 6.43327C2.39818 6.43103 2.39689 6.42857 2.39597 6.42597C2.12716 5.89737 2.02111 5.30093 2.09123 4.71207C2.16134 4.1232 2.40446 3.56834 2.78987 3.11763L2.80273 3.10302C3.15219 2.7003 3.60268 2.39801 4.10781 2.22727C4.61294 2.05654 5.15445 2.02353 5.67657 2.13166C6.1987 2.23978 6.68256 2.48512 7.07835 2.84242C7.47413 3.19971 7.76752 3.65605 7.92831 4.16443V4.16443L7.89354 4.17973L6.82135 4.66368C6.82135 4.6595 6.81961 4.65533 6.81822 4.65116C6.71826 4.23065 6.47032 3.86016 6.1197 3.6074C5.76909 3.35464 5.33923 3.23649 4.90868 3.27455C4.47814 3.31261 4.07566 3.50434 3.77483 3.81469C3.474 4.12504 3.29489 4.53329 3.27026 4.96481C3.24562 5.39633 3.37709 5.82231 3.64065 6.16488C3.9042 6.50745 4.28224 6.74375 4.70565 6.83056C5.12907 6.91738 5.56959 6.84893 5.94669 6.63771C6.32379 6.4265 6.6123 6.08664 6.75947 5.68024L7.95334 5.88258Z" fill="white"/>
</svg>
